<svg width="1447" height="2101" viewBox="0 0 1447 2101" fill="none" xmlns="http://www.w3.org/2000/svg">
<path d="M4.81458 790.504C4.81458 789.411 5.25167 788.319 6.12596 787.664C32.3546 766.801 61.7526 751.182 90.2763 736.109C107.325 727.043 119.893 715.247 128.527 699.955C147.542 666.313 170.602 627.866 203.06 596.518C229.507 570.959 261.418 557.742 300.652 555.885L303.603 555.776C326.335 554.793 349.831 553.701 372.125 549.441C423.162 539.829 445.347 518.421 454.09 470.252C459.882 438.576 466.876 407.556 472.887 381.342C477.696 360.589 476.712 341.802 469.827 323.779C465.674 312.747 462.068 301.497 459.226 290.028C453.762 268.511 461.303 248.085 478.679 238.146C496.056 228.206 511.247 229.845 531.465 243.498C547.748 254.53 557.584 270.805 567.201 286.533C568.84 289.264 570.48 291.994 572.228 294.725C587.856 319.629 604.031 345.515 627.09 365.831C641.079 378.174 652.991 385.165 668.837 381.888C687.197 378.174 702.935 369.545 714.737 362.445C752.441 339.726 783.041 306.631 808.505 261.302C828.286 226.022 859.432 206.47 901.289 203.193C932.435 200.681 959.211 207.672 983.144 224.493C996.586 233.886 1011.34 242.078 1025.66 249.942L1026.64 250.488C1036.59 255.95 1045.77 255.185 1053.85 247.976C1055.6 246.447 1057.35 245.027 1059.21 243.607C1062.05 241.532 1064.67 239.238 1067.08 236.726C1104.23 196.203 1163.58 201.883 1200.51 227.66C1223.25 243.607 1223.46 269.494 1214.07 286.861C1203.9 305.539 1187.73 318.646 1165.87 325.855C1152.21 330.333 1137.89 333.173 1124.12 335.903L1115.38 337.651C1103.58 340.054 1096.8 346.826 1093.96 359.059C1090.35 374.57 1093.52 389.643 1097.57 406.464C1112.76 468.286 1130.35 521.807 1151.12 570.085C1160.84 592.585 1164.78 617.161 1162.81 641.628L1162.7 643.266C1160.62 668.279 1158.55 694.166 1164.56 718.633C1167.51 730.648 1173.74 742.335 1179.64 753.585L1182.81 759.593C1187.95 769.532 1188.49 777.833 1184.34 784.933C1175.38 800.552 1149.48 819.012 1124.23 813.113C1115.05 811.038 1105.54 810.383 1096.15 811.147C1080.85 812.349 1068.06 821.524 1057.24 829.934C1033.31 848.612 1013.96 848.284 990.248 828.624C984.128 823.272 978.226 817.592 972.762 811.584C968.172 806.778 963.473 801.863 958.555 797.494C929.813 772.044 901.07 747.141 872.984 723.439C866.645 718.086 859.869 713.062 853.312 708.256C846.755 703.45 839.87 698.317 833.531 692.964C823.477 684.445 822.494 672.976 830.909 662.163C837.466 653.534 844.569 645.451 852.219 637.805C863.257 626.992 872.219 614.212 878.448 600.122C889.595 575.655 889.267 555.012 877.355 536.989C860.853 511.976 835.061 497.558 807.959 483.687C785.008 471.999 760.419 466.32 730.584 461.405C719.218 459.548 707.634 459.548 696.377 461.405C685.777 463.152 679.11 470.47 673.864 485.762C672.772 489.039 671.679 492.425 670.477 495.811C664.029 515.581 657.362 536.006 642.936 552.718C628.948 568.992 613.976 584.503 601.08 597.828C588.184 611.154 582.173 626.227 582.283 644.468C582.61 678.656 595.616 708.693 608.293 733.597C614.631 745.939 622.719 757.736 630.478 769.095C632.991 772.809 635.614 776.632 638.128 780.346C658.674 811.147 660.75 842.932 644.357 874.717C639.111 884.984 632.991 895.033 627.199 904.754C623.156 911.417 619.112 918.189 615.287 925.07C607.091 939.707 598.566 955.654 589.277 974.004C586.436 979.574 583.703 985.473 581.081 991.152C576.491 1001.2 571.682 1011.47 565.78 1021.08C554.961 1038.56 538.568 1050.57 522.831 1062.26C520.645 1063.9 518.35 1065.54 516.165 1067.17C503.597 1076.57 495.947 1082.25 495.182 1088.58C494.526 1094.04 498.46 1101.47 509.498 1115.34C524.142 1133.58 534.197 1152.15 540.535 1171.81C550.043 1201.74 561.081 1224.68 575.398 1243.9C582.283 1253.19 590.807 1264.76 597.473 1276.67C609.932 1298.84 623.921 1328.99 622.172 1364.16C621.189 1385.02 614.522 1404.25 608.511 1420.63C597.146 1451.21 579.988 1473.61 555.835 1489.33C520.536 1512.38 499.007 1537.94 488.078 1569.72C479.772 1594.08 481.958 1612.43 495.072 1627.72C501.52 1635.04 509.061 1641.6 517.257 1646.95C532.12 1656.89 547.42 1666.61 562.393 1676.11C568.513 1680.04 574.742 1683.87 580.862 1687.8C596.927 1697.85 610.041 1711.94 618.894 1728.65C635.068 1758.9 635.614 1790.8 634.303 1815.27C633.21 1836.35 627.199 1853.17 616.161 1866.49C601.189 1884.41 584.796 1891.29 564.688 1887.9C556.928 1886.59 547.53 1887.35 538.131 1889.87C533.541 1891.18 530.481 1893.36 529.825 1896.31C529.17 1899.26 530.809 1902.86 534.415 1906.25C538.787 1910.29 544.36 1913.24 550.262 1916.19L552.01 1917.06C560.207 1921.22 568.622 1925.47 572.993 1935.85C577.693 1947.43 577.911 1959.12 573.43 1969.6C568.731 1980.85 559.114 1989.59 545.89 1994.94C526.656 2002.7 506.329 2004.55 486.657 2006.52C477.477 2007.39 468.625 2007.94 459.882 2008.6C444.254 2009.69 428.08 2010.78 412.452 2013.18C390.267 2016.57 371.907 2026.84 358.027 2043.77C346.88 2057.2 338.137 2073.04 329.613 2095.21C328.848 2097.07 326.772 2097.94 324.914 2097.29C323.056 2096.63 322.182 2094.45 322.837 2092.7C331.69 2069.87 340.87 2053.38 352.454 2039.4C367.535 2021.05 387.425 2009.91 411.359 2006.3C427.315 2003.9 443.599 2002.7 459.445 2001.61C468.188 2000.95 476.931 2000.4 485.674 1999.53C505.127 1997.67 524.907 1995.82 543.267 1988.5C554.743 1983.91 562.939 1976.37 566.983 1966.98C570.698 1958.24 570.48 1948.52 566.436 1938.69C563.158 1930.72 556.6 1927.44 548.95 1923.62L547.202 1922.74C540.863 1919.58 534.743 1916.3 529.825 1911.71C524.142 1906.47 521.738 1900.35 523.05 1894.78C524.361 1889.21 529.17 1885.17 536.382 1883.1C546.765 1880.26 557.256 1879.49 565.999 1880.91C583.594 1883.86 597.473 1877.96 610.806 1862.01C620.861 1849.89 626.325 1834.6 627.309 1815.05C628.62 1791.56 628.074 1760.87 612.774 1732.14C604.468 1716.52 592.118 1703.31 577.146 1693.91C571.026 1689.98 564.906 1686.16 558.677 1682.23C543.705 1672.83 528.295 1663 513.432 1652.96C504.689 1647.17 496.712 1640.28 489.827 1632.42C474.964 1615.05 472.341 1594.41 481.521 1567.43C492.996 1534.01 515.4 1507.25 552.12 1483.33C574.851 1468.47 591.135 1447.17 601.954 1418.12C609.276 1398.46 614.304 1381.64 615.178 1363.72C616.817 1330.3 603.375 1301.46 591.353 1280.06C585.343 1269.35 578.348 1259.63 569.715 1248.05C554.961 1228.06 543.486 1204.47 533.869 1173.78C527.858 1154.88 518.132 1137.19 504.143 1119.6C493.214 1105.95 487.204 1096.45 488.297 1087.49C489.499 1078.21 498.023 1071.87 512.121 1061.28C514.307 1059.64 516.602 1058 518.897 1056.25C534.197 1045 549.934 1033.31 560.098 1017.04C565.78 1007.86 570.48 997.706 574.96 987.876C577.583 982.087 580.316 976.188 583.266 970.509C592.665 952.159 601.189 935.993 609.495 921.357C613.32 914.475 617.473 907.485 621.516 900.822C627.309 891.21 633.319 881.271 638.456 871.222C653.537 841.84 651.57 812.567 632.554 784.059C630.041 780.346 627.527 776.632 624.904 772.918C616.926 761.34 608.73 749.325 602.282 736.655C589.933 712.516 575.835 680.294 575.398 644.359C575.07 624.37 581.955 607.331 596.162 592.695C609.058 579.478 623.921 563.968 637.8 547.912C651.242 532.292 657.69 512.522 664.029 493.517C665.121 490.131 666.214 486.745 667.417 483.359C671.569 471.344 678.454 457.145 695.503 454.305C707.634 452.23 719.983 452.23 732.114 454.305C762.605 459.329 787.741 465.118 811.565 477.242C839.542 491.551 866.208 506.515 883.694 532.948C896.917 552.936 897.464 576.529 885.333 603.071C878.667 618.035 869.268 631.579 857.574 642.939C850.143 650.366 843.258 658.23 836.919 666.641C832.766 671.993 829.597 680.076 838.559 687.612C844.788 692.855 851.564 697.88 858.012 702.686C864.678 707.601 871.563 712.734 878.011 718.196C906.098 741.898 934.949 766.911 963.691 792.36C968.828 796.948 973.636 801.972 978.336 806.888C983.581 812.677 989.264 818.138 995.166 823.271C1016.26 840.748 1032 840.966 1053.2 824.364C1064.78 815.298 1078.55 805.468 1095.93 804.048C1106.09 803.283 1116.25 803.938 1126.2 806.232C1148.06 811.257 1170.68 795.091 1178.55 781.438C1181.39 776.523 1180.84 770.734 1176.8 762.979L1173.63 757.08C1167.51 745.393 1161.06 733.378 1157.89 720.49C1151.55 694.821 1153.74 668.389 1155.82 642.72L1155.93 641.082C1157.78 617.817 1153.96 594.442 1144.78 572.925C1123.8 524.319 1106.2 470.361 1090.9 408.211C1086.53 390.517 1083.25 374.57 1087.18 357.53C1090.68 342.457 1099.42 333.719 1114.18 330.77L1122.92 329.022C1136.58 326.292 1150.68 323.561 1163.9 319.192C1183.9 312.638 1198.77 300.623 1208.06 283.584C1216.03 268.948 1215.81 247.102 1196.69 233.668C1162.26 209.529 1107.07 204.176 1072.65 241.641C1069.92 244.372 1067.08 246.993 1063.91 249.287C1062.27 250.598 1060.52 252.018 1058.88 253.438C1048.5 262.722 1036.26 263.923 1023.47 256.824L1022.49 256.277C1008.06 248.304 993.089 240.112 979.319 230.5C956.806 214.662 931.561 208.109 902.163 210.512C862.274 213.679 833.859 231.483 815.062 265.016C789.052 311.437 757.578 345.406 718.89 368.781C706.65 376.208 690.148 385.165 670.695 389.097C649.712 393.357 634.959 382.215 622.609 371.511C598.676 350.431 581.518 323.015 566.327 298.876C564.688 296.145 562.939 293.414 561.3 290.684C552.12 275.61 542.721 259.991 527.64 249.833C509.607 237.6 497.367 236.289 482.504 244.809C468.079 253.11 461.74 270.258 466.439 288.718C469.281 299.859 472.669 310.891 476.822 321.704C484.144 341.037 485.237 361.135 480.1 383.417C474.089 409.522 467.095 440.542 461.303 471.999C452.014 523.008 427.424 546.82 373.546 556.978C350.705 561.237 326.881 562.33 303.931 563.422L300.98 563.531C263.495 565.17 233.113 577.84 207.978 602.088C176.285 632.781 153.553 670.682 134.756 703.887C125.357 720.489 111.915 733.16 93.5549 742.881C65.3591 757.845 36.1797 773.246 10.4974 793.671C8.9674 794.873 6.67242 794.654 5.47027 793.125C5.03312 792.142 4.70529 791.377 4.81458 790.504Z" fill="#F4F4F4" stroke="white" stroke-width="6" stroke-miterlimit="10"/>
<path d="M3.72122 707.929C3.72122 706.072 5.14194 704.543 6.99981 704.325C9.95053 704.106 13.0105 703.997 15.9612 703.888C22.5184 703.669 28.6384 703.451 34.5399 702.031C66.4514 694.276 90.8222 679.312 108.964 656.484L113.335 650.913C121.75 640.318 130.384 629.286 139.345 618.8C157.268 597.938 172.24 580.899 186.448 565.498C202.95 547.585 219.671 529.344 244.806 523.992C258.467 521.043 272.565 520.169 286.226 519.295C290.27 519.077 294.422 518.749 298.466 518.421C304.04 517.984 309.613 517.875 315.078 517.766C324.039 517.657 332.563 517.438 340.869 515.909C376.933 509.246 398.026 492.535 407.206 463.371C413.435 443.711 415.293 422.958 417.151 402.86C417.479 398.928 417.916 394.886 418.244 390.954C420.648 366.16 415.293 341.802 409.064 319.193C398.791 281.728 402.288 251.909 419.992 225.367C436.822 200.245 454.308 187.247 476.712 183.315C494.635 180.147 513.541 181.458 532.666 187.356C573.976 200.027 598.784 221.653 610.587 255.295C617.691 275.393 627.417 290.684 640.422 302.044C656.487 315.916 674.629 321.923 692.88 319.52C721.731 315.588 745.774 300.406 762.386 275.502C774.735 257.152 786.319 237.819 797.576 219.141L799.98 215.209C811.674 195.876 826.755 184.079 846.099 179.274C852.656 177.635 859.213 176.106 865.88 174.686C875.497 172.501 885.442 170.317 895.059 167.586C917.026 161.251 931.014 152.185 940.194 137.986L943.91 132.306C951.669 120.182 959.757 107.73 968.827 96.1523C974.401 89.1618 981.723 83.8097 990.029 80.5329C1004.45 75.0716 1016.69 80.9698 1027.51 98.446C1033.85 108.713 1039.21 119.854 1044.34 130.449L1046.64 135.146C1051.56 145.304 1058.66 151.53 1068.39 154.042C1081.72 157.428 1091.88 159.722 1101.5 161.251C1135.82 166.822 1170.79 172.283 1200.73 176.871C1217.13 179.383 1238.44 181.13 1258.22 171.846C1262.59 169.771 1266.85 167.805 1271.22 165.729C1296.9 153.496 1323.46 140.935 1351.66 132.743C1369.58 127.5 1383.68 114.284 1392.42 94.5139C1401.6 73.7609 1410.89 53.0078 1420.18 32.2548L1432.31 5.82205C1433.07 3.9652 1435.26 3.20062 1437.01 3.9652C1438.76 4.72979 1439.63 6.91432 1438.87 8.66194L1426.95 35.2039C1417.67 55.8477 1408.38 76.6007 1399.2 97.3538C1389.69 119.09 1373.95 133.726 1353.95 139.624C1326.3 147.707 1299.96 160.159 1274.61 172.283C1270.24 174.358 1265.87 176.434 1261.6 178.4C1240.18 188.449 1217.45 186.701 1200.08 183.97C1170.02 179.383 1135.16 173.921 1100.85 168.242C1091.01 166.603 1080.63 164.31 1067.08 160.814C1055.16 158.084 1046.31 150.438 1040.52 138.423L1038.22 133.726C1033.2 123.24 1027.95 112.318 1021.83 102.378C1012.76 87.6326 1004.13 83.1543 992.98 87.4142C985.876 90.254 979.647 94.8415 974.838 100.74C965.986 111.99 958.008 124.333 950.249 136.348L946.533 142.027C936.369 157.756 921.179 167.805 897.354 174.686C887.628 177.526 877.573 179.71 867.847 181.895C861.29 183.315 854.733 184.844 848.285 186.482C830.799 190.852 817.138 201.556 806.537 219.25L804.133 223.183C792.877 241.969 781.183 261.412 768.724 279.871C750.911 306.413 725.119 322.688 694.191 326.948C673.755 329.678 653.646 323.125 636.051 307.833C622.062 295.709 611.571 279.434 604.139 258.135C592.992 226.35 570.37 206.799 530.918 194.674C512.776 189.104 495.072 187.793 478.242 190.852C457.914 194.456 441.849 206.471 426.222 229.845C409.719 254.53 406.55 282.492 416.276 317.773C422.615 341.038 428.189 366.16 425.675 392.156C425.238 396.088 424.91 400.02 424.582 404.061C422.724 424.487 420.757 445.677 414.309 466.102C404.255 497.668 380.758 516.455 342.399 523.555C333.438 525.193 324.257 525.303 315.405 525.521C310.05 525.63 304.586 525.74 299.231 526.067C295.078 526.395 291.035 526.613 286.882 526.941C273.439 527.815 259.56 528.689 246.446 531.529C223.605 536.444 207.649 553.811 192.24 570.522C177.814 586.251 162.842 603.181 145.028 624.043C136.176 634.42 127.542 645.342 119.127 655.937L114.756 661.508C95.6309 685.647 70.0579 701.376 36.3978 709.568C29.8406 711.206 22.9556 711.424 16.3984 711.534C13.4477 711.643 10.6062 711.752 7.6555 711.861C5.68835 711.971 3.93977 710.551 3.83048 708.585L3.72122 707.929Z" fill="#F4F4F4" stroke="white" stroke-width="6" stroke-miterlimit="10"/>
<path d="M4.81402 919.937C4.81402 917.971 6.45324 916.332 8.42039 916.332C9.40396 916.332 10.3876 916.769 11.0433 917.534C20.9883 928.566 33.447 937.085 47.3264 942.437C65.7958 949.755 81.7515 948.336 96.1773 937.959C110.822 927.364 120.876 913.602 131.695 896.016C136.176 888.698 140.438 881.38 144.81 873.952C150.055 864.996 155.52 855.821 161.093 846.864C178.907 818.356 196.393 818.684 223.059 822.507C233.331 824.036 243.495 827.094 253.331 830.153C257.374 831.354 261.309 832.665 265.352 833.757C303.93 844.571 329.285 862.921 345.131 891.756C355.623 910.543 367.426 928.456 380.321 945.605C402.725 975.97 428.189 1012.34 446.44 1052.87C455.292 1072.42 456.603 1084.65 440.21 1100.6C420.429 1119.93 403.49 1142.87 388.409 1170.72C382.507 1181.75 375.294 1192.13 368.3 1202.18C361.743 1211.68 354.967 1221.51 349.393 1231.67C331.689 1263.78 315.842 1296.66 301.307 1327.46C284.149 1363.61 259.56 1409.93 221.31 1447.72C212.676 1456.24 206.01 1467.49 199.671 1478.3L196.611 1483.44C193.333 1489.01 190.054 1494.58 186.776 1500.15C174.863 1520.68 162.514 1541.87 146.012 1560.22C129.291 1578.68 124.264 1599.54 131.149 1622.37C140.22 1652.52 147.979 1675.24 156.285 1696.21C163.17 1713.58 171.038 1731.82 182.185 1747.44C196.939 1768.19 213.551 1787.63 231.692 1805.43C260.981 1833.94 261.09 1869 257.374 1899.59C255.844 1912.37 253.659 1925.26 251.582 1937.82C250.38 1944.92 249.178 1952.13 248.085 1959.23C246.992 1966.33 246.118 1973.42 245.134 1980.52C243.277 1994.51 241.419 2009.03 238.359 2023.12C236.938 2029.68 235.408 2036.12 233.769 2042.57C229.725 2059.06 225.572 2076.21 225.135 2093.46C225.135 2095.43 223.496 2096.96 221.419 2096.96C219.561 2096.96 217.922 2095.43 217.922 2093.57C217.922 2093.46 217.922 2093.36 217.922 2093.25C218.359 2075.11 222.621 2057.64 226.774 2040.82C228.304 2034.37 229.944 2028.04 231.255 2021.59C234.206 2007.83 236.064 1993.41 237.921 1979.54C238.905 1972.44 239.779 1965.23 240.872 1958.13C241.965 1951.03 243.167 1943.72 244.369 1936.62C246.446 1924.27 248.522 1911.38 250.162 1898.71C253.877 1868.46 253.549 1836.89 226.556 1810.57C207.977 1792.44 191.147 1772.67 176.175 1751.59C164.59 1735.31 156.503 1716.63 149.509 1698.83C141.094 1677.75 133.335 1654.81 124.155 1624.45C116.614 1599.43 122.297 1575.51 140.547 1555.42C156.613 1537.72 168.743 1516.75 180.437 1496.54C183.715 1490.86 186.994 1485.29 190.273 1479.72L193.333 1474.7C199.999 1463.45 206.775 1451.87 216.064 1442.69C253.549 1405.67 277.702 1360.01 294.532 1324.4C309.176 1293.6 325.132 1260.61 342.836 1228.28C348.628 1217.8 355.513 1207.86 362.18 1198.14C369.065 1188.2 376.169 1178.04 381.851 1167.33C397.261 1138.83 414.637 1115.34 434.964 1095.46C447.423 1083.34 448.407 1075.15 439.664 1055.81C421.741 1015.95 396.605 979.902 374.311 949.865C361.196 932.389 349.284 914.148 338.574 895.142C323.711 868.163 299.778 850.906 263.167 840.638C259.014 839.546 254.97 838.235 250.926 836.925C241.419 833.976 231.583 830.917 221.747 829.497C196.611 825.893 182.841 825.128 166.885 850.578C161.312 859.425 155.957 868.6 150.711 877.448C146.34 884.875 141.968 892.193 137.487 899.511C127.761 915.349 116.504 931.624 100.112 943.53C83.7186 955.435 65.0306 957.074 44.4848 948.882C29.5126 943.093 16.1798 933.918 5.46971 922.012C5.14186 921.794 4.70474 920.92 4.81402 919.937Z" fill="#F4F4F4" stroke="white" stroke-width="6" stroke-miterlimit="10"/>
<path d="M4.81501 976.298C4.81501 975.861 4.92424 975.315 5.03353 974.987C5.79853 973.13 7.87502 972.256 9.73289 973.021C14.9786 975.205 20.2244 977.499 25.4701 979.793C36.8359 984.817 48.748 989.951 60.6602 993.555C90.2768 1002.51 112.243 996.614 127.543 975.315C132.789 967.996 137.925 960.351 142.843 952.923C148.089 945.168 153.444 937.195 159.018 929.439C168.307 916.66 178.361 903.007 189.618 890.555C204.59 873.952 224.917 873.079 244.479 873.516C277.593 874.28 302.073 886.404 319.341 910.653C323.603 916.66 327.974 922.667 332.236 928.675C347.536 949.974 363.274 971.929 377.699 994.429C396.606 1023.92 397.917 1054.5 381.743 1080.28C366.224 1104.97 347.318 1130.42 324.149 1157.94C301.527 1184.81 288.631 1206.33 281.309 1230.03C275.517 1248.71 269.615 1267.39 263.605 1286.06C258.687 1301.46 253.878 1316.87 248.96 1332.38C239.78 1361.54 225.354 1383.38 204.918 1398.89C182.514 1415.93 166.668 1435.27 156.832 1457.99L155.083 1461.92C149.291 1475.13 143.39 1488.79 135.412 1501.13C123.172 1520.14 105.249 1533.35 87.8725 1546.24C75.4139 1555.52 69.6216 1566.45 70.1681 1580.76C70.6052 1594.3 74.7581 1607.3 83.7196 1622.81C97.0525 1645.96 112.134 1672.07 123.828 1699.38C134.101 1723.62 145.685 1749.07 162.734 1770.81C176.285 1788.07 187.214 1802.38 197.268 1815.81C214.098 1838.42 221.202 1860.48 218.797 1882.99C217.486 1894.13 215.409 1905.05 212.459 1915.86C205.574 1942.95 196.503 1971.13 176.066 1993.52C146.668 2025.96 127.434 2058.62 117.489 2093.57C116.943 2095.43 114.975 2096.52 113.008 2095.98C111.041 2095.43 110.058 2093.46 110.604 2091.5C120.877 2055.56 140.548 2021.92 170.821 1988.61C190.164 1967.31 198.907 1940.22 205.574 1914.01C208.415 1903.52 210.382 1892.93 211.694 1882.11C213.989 1861.14 207.541 1841.37 191.585 1819.96C181.64 1806.64 170.711 1792.33 157.16 1775.18C139.565 1752.79 127.871 1726.79 117.38 1702.22C105.905 1675.35 90.9325 1649.35 77.7088 1626.41C68.0916 1609.81 63.611 1595.72 63.1739 1580.97C62.6274 1564.48 69.4031 1551.05 83.8288 1540.45C100.659 1528 118.145 1515.11 129.51 1497.31C137.161 1485.4 142.953 1472.08 148.636 1459.08L150.384 1455.15C160.876 1431.33 177.269 1411.13 200.765 1393.21C219.999 1378.58 233.66 1357.93 242.294 1330.19C247.102 1314.79 252.02 1299.28 256.938 1283.88C262.84 1265.2 268.741 1246.52 274.643 1227.85C284.369 1196.61 303.385 1171.59 318.903 1153.24C341.963 1125.94 360.541 1100.82 375.951 1076.35C394.857 1046.42 384.147 1017.26 372.017 998.143C357.809 975.861 342.072 953.906 326.772 932.716C322.401 926.709 318.138 920.701 313.767 914.585C297.92 892.302 275.298 881.161 244.589 880.506C226.01 880.069 208.196 880.834 195.301 895.252C184.263 907.485 174.427 920.811 165.138 933.481C159.673 941.127 154.318 948.991 149.073 956.746C144.046 964.173 138.909 971.929 133.554 979.247C116.396 1002.95 91.2603 1010.05 58.693 1000.11C46.3437 996.395 34.3223 991.152 22.738 986.128C17.4922 983.834 12.3557 981.65 7.10999 979.465C5.57999 979.028 4.81501 977.717 4.81501 976.298Z" fill="#F4F4F4" stroke="white" stroke-width="6" stroke-miterlimit="10"/>
<path d="M3.72276 1012.89C3.72276 1012.45 3.83197 1011.91 4.05054 1011.47C4.81554 1009.61 6.89203 1008.85 8.7499 1009.5L17.1649 1013.11C23.3942 1015.73 29.6236 1018.35 35.8529 1020.97C40.9894 1023.05 46.0165 1025.23 51.153 1027.42C63.5023 1032.66 76.2888 1038.12 89.0752 1042.6C108.637 1049.37 127.544 1050.79 145.467 1046.64C163.827 1042.49 172.461 1028.94 180.657 1008.3L180.876 1007.65C190.165 984.053 199.891 959.695 220 941.017C239.234 923.213 274.206 923.323 292.129 941.236C313.658 962.863 328.631 983.506 339.013 1005.9C347.428 1024.14 347.537 1041.07 339.122 1059.31C329.177 1080.72 313.112 1098.3 288.304 1114.69C266.119 1129.32 253.988 1146.91 250.163 1169.96C248.415 1180.22 245.682 1190.38 242.95 1200.21C241.857 1204.14 240.764 1208.08 239.781 1212.01C232.24 1242.26 219.235 1270.99 201.421 1296.55L200.984 1297.1C193.334 1307.91 184.701 1320.25 168.745 1322C157.707 1323.31 146.56 1323.31 135.522 1322C116.615 1319.38 98.0367 1317.41 79.3487 1322.22C56.7265 1327.9 36.9458 1340.46 17.8207 1352.58L10.3892 1357.28C8.7499 1358.37 6.45489 1357.83 5.47131 1356.19C4.48774 1354.55 4.92488 1352.25 6.56418 1351.27C6.56418 1351.27 6.67343 1351.27 6.67343 1351.16L14.1049 1346.47C33.7765 1334.01 53.9943 1321.13 77.7095 1315.12C97.5995 1310.09 116.943 1312.06 136.615 1314.79C147.106 1316.1 157.598 1316.1 168.089 1314.79C180.766 1313.37 188.088 1302.99 195.192 1292.84L195.629 1292.29C213.006 1267.39 225.574 1239.53 232.896 1210.15C233.879 1206.22 234.972 1202.18 236.065 1198.25C238.688 1188.63 241.42 1178.58 243.059 1168.65C247.322 1143.52 260.436 1124.41 284.37 1108.57C307.975 1092.95 323.385 1076.35 332.674 1056.14C340.215 1039.87 340.215 1025.23 332.565 1008.85C322.51 987.22 308.085 967.232 287.102 946.26C271.692 930.859 241.529 930.75 225.027 946.26C206.121 963.846 197.159 986.456 187.761 1010.38L187.542 1011.03C180.548 1028.84 171.04 1048.39 147.325 1053.74C128.09 1058.11 107.763 1056.69 86.9988 1049.48C73.9937 1045 61.098 1039.43 48.6394 1034.08C43.6122 1031.89 38.585 1029.71 33.4485 1027.63C27.2192 1025.01 20.99 1022.39 14.6514 1019.77L6.23626 1016.17C4.59697 1015.73 3.72276 1014.31 3.72276 1012.89Z" fill="#F4F4F4" stroke="white" stroke-width="6" stroke-miterlimit="10"/>
<path d="M3.72181 302.808C3.72181 301.169 4.92393 299.64 6.56323 299.313C8.20252 298.985 9.84181 298.657 11.4811 298.329C14.6504 297.783 17.8196 297.019 20.9889 296.145C27.5461 294.179 33.994 292.104 40.5512 289.919C51.5891 286.315 63.0641 282.71 74.4299 279.543C92.1342 274.737 106.779 279.87 116.942 294.397C120.877 300.077 124.811 305.648 128.745 311.327C135.193 320.612 141.641 330.005 148.307 339.18C157.487 352.069 167.214 358.513 179.126 359.496C186.667 360.152 194.426 360.37 201.967 360.589C210.928 360.807 220.218 361.135 229.288 362.008C238.031 362.882 246.556 364.848 254.971 366.814C258.359 367.579 261.856 368.453 265.243 369.108C269.396 369.764 273.112 372.167 275.407 375.771C277.593 379.485 278.139 383.854 276.937 388.004C275.189 394.339 271.582 400.019 266.664 404.388C239.671 427.872 207.54 427.217 182.514 424.049C162.296 421.428 150.93 426.561 144.701 440.979C139.892 452.011 136.832 464.244 134.319 475.713C127.871 504.877 114.647 530.326 93.9921 553.81C68.9656 582.1 45.1413 606.129 8.09326 613.12C6.12611 613.448 4.26816 612.028 4.04959 610.062C3.83102 608.205 4.92388 606.457 6.78175 606.02C41.644 599.467 64.4849 576.311 88.6371 548.895C108.527 526.394 121.204 501.927 127.324 474.075C129.947 462.169 133.117 449.608 138.144 438.03C145.685 420.554 160.11 413.891 183.498 416.84C218.36 421.318 242.621 415.748 261.965 398.927C265.79 395.541 268.631 391.172 270.052 386.257C270.708 383.963 270.489 381.56 269.396 379.594C268.085 377.737 266.118 376.536 263.823 376.208C260.326 375.443 256.829 374.679 253.331 373.805C245.244 371.73 236.938 370.2 228.633 369.108C219.78 368.234 210.71 368.016 201.857 367.688C194.207 367.47 186.339 367.251 178.58 366.596C164.7 365.504 152.897 357.858 142.515 343.331C135.958 334.047 129.401 324.762 122.953 315.369C119.019 309.689 115.084 304.009 111.15 298.439C102.735 286.533 91.0414 282.492 76.3971 286.424C65.1406 289.482 53.7748 293.087 42.8462 296.691C36.289 298.766 29.7318 300.951 23.1747 302.917C19.7868 303.9 16.399 304.665 13.0111 305.211C11.4811 305.538 9.84178 305.757 8.31178 306.194C6.34463 306.631 4.48674 305.429 4.04959 303.463C3.72173 303.354 3.72181 303.026 3.72181 302.808Z" fill="#F4F4F4" stroke="white" stroke-width="6" stroke-miterlimit="10"/>
<path d="M4.81549 1588.29C4.81549 1586.33 6.4547 1584.69 8.42185 1584.8C9.51471 1584.8 10.4983 1585.34 11.154 1586.11C15.4162 1591.46 19.7877 1596.7 24.0498 1601.95C33.7763 1613.74 43.8306 1625.98 52.7921 1638.65L54.6499 1641.16C69.4035 1661.8 84.5943 1683.21 94.5393 1708.01C111.916 1751.26 128.964 1782.28 149.838 1808.71C156.942 1817.67 161.86 1828.37 164.92 1835.58C172.57 1853.28 175.083 1871.19 172.46 1888.56C168.417 1915.64 156.942 1941.42 137.379 1967.42C104.812 2010.67 82.8457 2052.4 70.1685 2094.88C69.622 2096.74 67.6549 2097.83 65.6878 2097.29C63.8299 2096.74 62.7371 2094.78 63.2835 2092.81C76.1793 2049.56 98.5829 2007.07 131.587 1963.16C150.385 1938.25 161.313 1913.46 165.247 1887.57C167.652 1871.52 165.357 1855.02 158.253 1838.53C155.302 1831.65 150.603 1821.49 144.046 1813.3C122.735 1786.32 105.359 1754.75 87.6543 1710.84C78.0371 1686.92 63.065 1665.84 48.5299 1645.53L46.672 1643.02C37.8198 1630.56 27.8748 1618.44 18.2576 1606.75C13.8862 1601.51 9.51482 1596.16 5.25266 1590.81C5.03409 1589.93 4.81549 1589.06 4.81549 1588.29Z" fill="#F4F4F4" stroke="white" stroke-width="6" stroke-miterlimit="10"/>
<path d="M3.72256 1298.95C3.72256 1297.42 4.70608 1296 6.1268 1295.57C13.7768 1292.94 21.4268 1290.32 29.1862 1287.59C46.9998 1281.37 65.3599 1274.92 83.72 1269.68C94.5393 1266.62 105.796 1264.87 116.724 1263.24C123.5 1262.25 130.494 1261.16 137.161 1259.74C172.46 1252.64 196.175 1222.6 194.755 1187.21C193.88 1165.37 183.389 1146.91 161.75 1129.21C143.281 1114.14 122.079 1105.18 99.6757 1095.68C95.96 1094.04 92.1351 1092.51 88.4193 1090.88C69.0757 1082.47 49.8413 1073.18 31.1534 1064.12C23.0662 1060.18 14.8697 1056.25 6.67323 1052.32C4.92465 1051.45 4.15968 1049.37 4.92468 1047.51C5.79897 1045.77 7.87543 1045 9.7333 1045.77C17.9298 1049.7 26.1262 1053.63 34.2134 1057.56C52.7921 1066.52 72.0264 1075.8 91.1515 1084.1C94.8672 1085.74 98.5829 1087.27 102.408 1088.91C124.265 1098.19 146.887 1107.7 166.231 1123.43C189.618 1142.54 200.875 1162.64 201.858 1186.78C203.17 1219.87 181.75 1257.88 138.472 1266.51C131.587 1267.93 124.484 1269.02 117.708 1270.01C106.998 1271.65 95.9601 1273.28 85.5779 1276.23C67.3271 1281.48 49.0762 1287.81 31.3719 1293.93C23.7218 1296.66 15.9626 1299.28 8.31252 1301.9C6.45466 1302.56 4.37828 1301.57 3.72256 1299.72C3.72256 1299.83 3.72256 1299.39 3.72256 1298.95Z" fill="#F4F4F4" stroke="white" stroke-width="6" stroke-miterlimit="10"/>
<path d="M4.81483 1655.03C4.81483 1653.06 6.45404 1651.43 8.42119 1651.43C9.29548 1651.43 10.2791 1651.75 10.9348 1652.41C33.6664 1674.04 50.0593 1696.86 60.988 1722.53C63.3923 1728.21 65.7965 1733.78 68.2008 1739.46C78.3644 1763.49 88.856 1788.4 100.877 1811.99C115.085 1840.06 118.472 1869.55 111.15 1902.21C102.298 1941.53 82.9545 1976.92 63.8294 2009.69C48.5293 2036.12 32.5735 2063.43 26.7813 2094.23C26.3442 2096.2 24.377 2097.4 22.5191 2096.96C20.6613 2096.52 19.4591 2094.78 19.787 2092.92C25.907 2060.81 42.0815 2033.06 57.7094 2006.08C76.5066 1973.75 95.6317 1938.91 104.265 1900.57C111.15 1869.55 108.09 1841.59 94.648 1815.16C82.6266 1791.34 72.0258 1766.33 61.7529 1742.19C59.3486 1736.51 56.9443 1730.94 54.5401 1725.26C44.0486 1700.58 28.202 1678.4 6.23547 1657.54C5.1426 1657 4.81483 1656.01 4.81483 1655.03Z" fill="#F4F4F4" stroke="white" stroke-width="6" stroke-miterlimit="10"/>
<path d="M1084.89 63.1662C1084.89 45.3623 1089.04 27.8861 1097.02 11.9391C1097.89 10.3007 1098.99 8.88073 1100.3 7.46078C1100.74 7.02388 1101.17 6.47775 1101.61 6.04084C1102.81 4.51167 1105.11 4.29322 1106.64 5.49471C1108.17 6.6962 1108.39 8.98995 1107.18 10.5191C1106.64 11.1745 1106.2 11.7206 1105.65 12.2667C1104.78 13.1406 1104.12 14.0144 1103.47 15.1066C1095.6 30.726 1091.67 48.093 1092.1 65.5692C1092.65 93.3127 1104.12 112.1 1126.96 122.804C1140.52 129.139 1154.72 134.382 1169.15 138.205C1202.37 147.052 1232.64 143.994 1259.2 128.921C1278.76 117.889 1299.09 109.587 1316.36 102.925C1334.28 96.0434 1350.02 89.2713 1362.04 75.8365C1372.97 63.6031 1379.52 49.1853 1386.41 32.9105C1389.03 26.7939 1391.77 20.6772 1394.39 14.5605L1397.89 6.6962C1398.65 4.83935 1400.73 4.07477 1402.58 4.83935C1404.44 5.60393 1405.21 7.67924 1404.44 9.53608V9.64531L1400.95 17.5096C1398.21 23.5171 1395.59 29.6337 1392.97 35.7504C1385.86 52.5713 1378.98 67.6445 1367.39 80.6425C1354.28 95.2788 1337.67 102.488 1318.87 109.697C1301.82 116.25 1281.82 124.333 1262.7 135.146C1234.5 151.093 1202.37 154.479 1167.29 145.086C1152.43 141.045 1137.89 135.802 1123.9 129.248C1098.77 117.452 1085.65 96.0434 1085 65.7877C1084.89 64.9139 1084.89 64.04 1084.89 63.1662Z" fill="#F4F4F4" stroke="white" stroke-width="6" stroke-miterlimit="10"/>
<path d="M4.81532 247.431C4.81532 246.011 5.58035 244.7 6.89179 244.154C31.044 233.013 43.8305 211.714 54.1034 190.415C64.4855 168.788 77.7091 147.489 103.501 138.86C116.834 134.381 132.024 130.886 150.057 128.155C200.984 120.51 244.152 103.907 282.293 77.3652C304.587 61.8551 319.122 38.6991 326.882 6.36808C327.428 4.402 329.286 3.30974 331.253 3.85587C333.111 4.29278 334.313 6.14963 333.876 8.1157C325.789 42.1943 310.27 66.7703 286.446 83.2634C247.431 110.352 203.279 127.391 151.259 135.255C133.773 137.877 118.91 141.263 106.014 145.632C82.7363 153.496 70.4962 173.375 60.7698 193.582C50.4969 214.99 36.399 238.583 10.1704 250.707C8.42179 251.581 6.23604 250.707 5.36175 248.96C4.92461 248.414 4.81532 247.977 4.81532 247.431Z" fill="#F4F4F4" stroke="white" stroke-width="6" stroke-miterlimit="10"/>
<path d="M440.867 61.855C440.867 53.9907 443.817 46.0171 449.609 38.5897C461.74 22.9704 475.182 12.0477 490.592 5.05724C492.45 4.29266 494.526 5.05724 495.291 6.91409C496.056 8.77094 495.291 10.8462 493.433 11.6108C479.007 18.0552 466.549 28.3225 455.183 42.9588C449.282 50.4954 446.987 58.1413 448.189 65.6779C449.609 74.416 456.057 82.8264 466.767 89.9261C481.849 99.975 499.772 103.143 515.29 104.999C544.579 108.385 570.371 100.63 591.9 81.9526C613.429 63.2749 639.986 56.9398 665.45 50.8231C691.678 44.5972 709.711 31.1623 720.53 9.8632C720.748 9.31707 720.858 8.66171 720.967 8.00636C721.076 7.46022 721.186 6.91409 721.295 6.36796C721.732 4.40189 723.59 3.2004 725.557 3.6373C727.524 4.07421 728.726 5.93105 728.289 7.89713C728.289 8.00636 728.289 8.11558 728.18 8.11558C728.071 8.44326 727.961 8.88017 727.961 9.31707C727.743 10.6278 727.415 11.8293 726.869 13.0308C715.066 36.296 695.503 50.9323 666.98 57.7044C642.281 63.6026 616.817 69.61 596.381 87.1955C573.212 107.293 545.563 115.594 514.198 111.99C497.805 110.133 478.898 106.638 462.505 95.8244C450.047 87.6324 442.506 77.5836 440.757 66.7701C440.976 65.1317 440.867 63.4934 440.867 61.855Z" fill="#F4F4F4" stroke="white" stroke-width="6" stroke-miterlimit="10"/>
<path d="M1130.68 62.4012C1130.79 53.9908 1132.1 45.6895 1134.51 37.716C1136.58 30.1794 1139.53 22.8612 1142.27 15.7615C1143.47 12.594 1144.78 9.31716 1145.98 6.14959C1146.64 4.29275 1148.71 3.30971 1150.57 3.96507C1152.43 4.62043 1153.41 6.69573 1152.76 8.55258C1151.55 11.8294 1150.24 15.1062 1149.04 18.2737C1146.31 25.2642 1143.47 32.4732 1141.5 39.5729C1130.9 77.256 1145.43 90.8 1162.81 99.7566C1183.14 110.57 1207.29 111.225 1228.27 101.723L1238.87 97.0259C1263.24 86.1033 1288.49 74.853 1314.39 66.3333C1327.18 62.1827 1337.34 55.7384 1345.32 46.6726C1355.05 35.8592 1362.04 22.9705 1367.5 6.14959C1368.05 4.29275 1370.02 3.09126 1371.88 3.63739C1373.73 4.18352 1374.94 6.14959 1374.39 8.00644C1374.39 8.11567 1374.28 8.2249 1374.28 8.33412C1368.6 25.9196 1360.95 40.0098 1350.67 51.4785C1341.71 61.4181 1330.57 68.5179 1316.58 73.1054C1291 81.5158 1265.98 92.6569 1241.72 103.47L1231.11 108.167C1208.16 118.544 1181.72 117.779 1159.42 105.983C1139.97 96.0429 1130.68 82.1712 1130.68 62.4012Z" fill="#F4F4F4" stroke="white" stroke-width="6" stroke-miterlimit="10"/>
<path d="M3.72221 1094.26C3.72221 1093.72 3.83141 1093.28 4.04999 1092.84C4.81499 1090.99 6.89147 1090.22 8.74934 1090.99L11.263 1092.08C12.9023 1092.73 14.5416 1093.5 16.1808 1094.26C22.1916 1097.1 28.3116 1099.94 34.3223 1102.78C48.6388 1109.44 63.5017 1116.43 77.9275 1123.64L84.4847 1126.92C104.265 1136.86 124.811 1147.13 138.8 1166.46C146.231 1176.73 149.182 1186.78 147.433 1196.17C145.794 1205.13 139.893 1213.1 130.494 1219.33C124.265 1223.37 116.833 1225.99 109.839 1228.17C86.0146 1235.82 62.081 1243.25 38.1473 1250.67L9.51428 1259.63C7.65642 1260.29 5.58002 1259.19 5.03359 1257.34C4.48716 1255.48 5.47071 1253.4 7.32857 1252.86L35.9616 1243.9C59.8953 1236.47 83.7196 1229.05 107.544 1221.4C114.32 1219.22 120.986 1216.92 126.45 1213.32C134.21 1208.19 139.018 1201.85 140.33 1194.86C141.641 1187.43 139.237 1179.24 132.898 1170.61C119.893 1152.81 100.222 1142.87 81.2061 1133.26L74.6489 1129.98C60.4417 1122.77 45.5787 1115.89 31.2623 1109.23C25.2515 1106.39 19.1315 1103.55 13.1208 1100.71C11.5908 1099.94 10.0608 1099.4 8.53082 1098.74L5.90793 1097.65C4.48721 1097.1 3.72221 1095.79 3.72221 1094.26Z" fill="#F4F4F4" stroke="white" stroke-width="6" stroke-miterlimit="10"/>
<path d="M4.81466 1755.3C4.81466 1753.33 6.45387 1751.7 8.42102 1751.7C9.51388 1751.7 10.4976 1752.24 11.2626 1753.12C13.2297 1755.63 15.3061 1758.03 17.3825 1760.43C21.9726 1765.79 26.6718 1771.36 30.2782 1777.69C53.9933 1820.29 62.5176 1861.36 56.2883 1903.08C50.6055 1941.31 35.7425 1971.02 11.0439 1993.85C9.62319 1995.16 7.32821 1995.16 6.01678 1993.74C4.70535 1992.32 4.70532 1990.03 6.12604 1988.72C6.12604 1988.72 6.12601 1988.72 6.2353 1988.61C29.7318 1966.87 43.8297 1938.58 49.294 1901.99C55.3047 1861.8 47.1083 1822.26 24.1582 1781.08C20.9889 1775.4 16.7268 1770.26 12.1368 1764.91C10.0603 1762.4 7.87467 1759.89 5.90752 1757.38C5.03323 1756.94 4.81466 1756.17 4.81466 1755.3Z" fill="#F4F4F4" stroke="white" stroke-width="6" stroke-miterlimit="10"/>
<path d="M3.72214 407.228C3.72214 405.262 5.36136 403.624 7.32851 403.624C7.98423 403.624 8.53076 403.733 9.07719 404.061C12.3558 405.918 15.6344 407.665 18.913 409.413C26.3444 413.236 33.6665 417.496 40.5515 422.192C70.6052 443.491 79.6761 481.393 62.6274 514.27C50.3874 537.863 32.5737 555.339 9.84214 566.043C8.09356 566.917 5.90781 566.153 5.03352 564.296C4.15924 562.548 4.92421 560.364 6.78208 559.49C28.0929 549.441 44.7045 533.166 56.1795 510.884C71.5889 481.175 63.3924 447.096 36.3987 427.981C29.7323 423.503 22.7379 419.352 15.525 415.748C12.1371 414 8.74928 412.143 5.4707 410.287C4.37783 409.631 3.72214 408.539 3.72214 407.228Z" fill="#F4F4F4" stroke="white" stroke-width="6" stroke-miterlimit="10"/>
<path d="M1199.97 14.4509C1199.97 13.2494 1199.97 11.9387 1200.08 10.7372C1200.19 9.53568 1200.08 8.44341 1200.08 7.24192C1200.08 5.27585 1201.72 3.63745 1203.68 3.63745C1205.65 3.63745 1207.29 5.27585 1207.29 7.24192C1207.29 8.44341 1207.29 9.6449 1207.29 10.9556C1207.18 13.4678 1207.18 15.98 1207.4 18.4922C1208.16 27.0119 1210.24 32.5824 1213.85 35.5315C1216.91 38.0438 1221.28 38.9176 1227.4 38.153C1231.01 37.7161 1234.72 37.2792 1238.33 36.8423C1247.4 35.75 1256.8 34.6577 1266.2 34.0024C1294.83 32.1455 1317.23 26.575 1333.62 6.04043C1334.94 4.51126 1337.12 4.29281 1338.65 5.60353C1340.07 6.80502 1340.29 8.98954 1339.2 10.4095C1320.18 34.4393 1293.08 39.3545 1266.63 41.1021C1257.45 41.7575 1248.16 42.8497 1239.2 43.942C1235.49 44.3789 1231.88 44.8158 1228.16 45.2527C1220.08 46.1265 1213.85 44.8158 1209.26 40.9929C1204.01 36.733 1201.06 29.5241 1200.19 18.9291C1199.97 17.5092 1199.97 15.98 1199.97 14.4509Z" fill="#F4F4F4" stroke="white" stroke-width="6" stroke-miterlimit="10"/>
<path d="M1058.22 1642.47C1058.11 1631 1060.3 1619.64 1064.56 1609.05C1077.9 1576.93 1100.41 1548.75 1133.41 1522.98C1157.89 1503.86 1187.07 1496.54 1217.34 1489.99C1237.23 1485.73 1255.81 1488.35 1271 1497.64C1292.21 1510.63 1321.6 1532.37 1331.22 1570.71C1331.33 1571.14 1331.33 1571.69 1331.33 1572.13C1331.33 1572.24 1331.33 1572.35 1331.33 1572.46C1332.42 1591.79 1325.65 1608.72 1319.75 1621.28C1313.08 1635.26 1305.98 1649.13 1298.98 1662.68C1284.99 1689.87 1270.57 1717.94 1259.86 1747.11C1254.94 1760.43 1248.82 1773.43 1242.92 1786.1C1239.53 1793.31 1236.14 1800.63 1232.86 1807.95C1225.65 1824.44 1223.46 1841.92 1226.2 1861.47C1228.49 1877.96 1227.73 1895 1227.07 1911.49C1226.96 1914.88 1226.74 1918.16 1226.63 1921.54L1226.52 1924.82C1225.87 1945.46 1225.1 1966.87 1222.26 1987.62C1218.11 2017.99 1200.84 2033.94 1174.83 2031.42C1158.11 2029.79 1146.31 2019.41 1138 2010.67C1125.22 1997.13 1117.68 1980.85 1111.45 1966.65C1096.69 1932.57 1097.02 1902.21 1112.54 1873.81C1117.35 1864.85 1122.27 1856.01 1127.18 1847.16L1134.4 1834.05C1142.48 1819.53 1141.5 1805.65 1131.45 1792C1126.09 1784.46 1120.19 1777.25 1113.96 1770.37C1089.37 1744.38 1071.88 1712.48 1063.14 1677.86C1060.08 1666.39 1058.44 1654.48 1058.22 1642.47ZM1324.34 1572.24C1317.34 1544.71 1299.75 1523.63 1267.4 1503.86C1253.63 1495.45 1237.34 1493.16 1218.98 1497.09C1189.59 1503.42 1161.17 1510.52 1137.89 1528.66C1105.87 1553.67 1084.02 1580.87 1071.23 1611.78C1063.8 1629.69 1063.58 1650.12 1070.25 1676.22C1078.77 1709.75 1095.71 1740.45 1119.42 1765.57C1125.87 1772.67 1131.88 1780.09 1137.46 1787.85C1149.15 1803.8 1150.35 1820.51 1140.84 1837.55L1133.63 1850.65C1128.71 1859.5 1123.8 1868.35 1118.99 1877.2C1104.67 1903.52 1104.45 1931.81 1118.22 1963.81C1124.12 1977.47 1131.45 1993.09 1143.36 2005.76C1151.34 2014.17 1161.39 2023.01 1175.71 2024.32C1203.9 2027.06 1212.75 2005.32 1215.38 1986.64C1218.22 1966.22 1218.87 1945.03 1219.64 1924.49L1219.75 1921.21C1219.86 1917.83 1219.97 1914.44 1220.19 1911.17C1220.84 1895 1221.61 1878.29 1219.31 1862.45C1216.47 1841.7 1218.77 1822.91 1226.52 1805.11C1229.8 1797.68 1233.19 1790.25 1236.58 1783.04C1242.48 1770.59 1248.49 1757.7 1253.3 1744.6C1264.23 1715 1278.76 1686.71 1292.75 1659.29C1299.64 1645.86 1306.85 1631.98 1313.41 1618.11C1321.93 1600.31 1325.21 1586.76 1324.34 1572.78C1324.23 1572.67 1324.23 1572.46 1324.34 1572.24Z" fill="#F4F4F4" stroke="white" stroke-width="6" stroke-miterlimit="10"/>
<path d="M1093.74 1642.36C1093.74 1636.57 1094.4 1630.78 1095.82 1625.1C1105.76 1584.14 1157.57 1536.74 1206.85 1539.47C1243.57 1541.54 1258.55 1552.14 1268.6 1583.05C1268.82 1583.6 1268.82 1584.14 1268.71 1584.69C1268.82 1585.78 1268.82 1586.87 1268.82 1587.97C1269.04 1590.37 1268.93 1592.88 1268.6 1595.28C1258.98 1641.27 1242.81 1678.73 1218.88 1709.53C1202.15 1731.16 1181.39 1737.39 1155.38 1728.43C1134.72 1721.33 1118.77 1706.91 1105.22 1682.99C1097.57 1669.56 1093.74 1655.9 1093.74 1642.36ZM1261.61 1584.8C1252.54 1557.05 1240.08 1548.53 1206.53 1546.68C1160.52 1544.17 1112.21 1588.51 1102.81 1626.85C1098.55 1644.22 1101.5 1661.91 1111.56 1679.61C1124.12 1701.89 1138.88 1715.32 1157.78 1721.77C1180.84 1729.63 1198.44 1724.39 1213.3 1705.27C1236.47 1675.35 1252.32 1638.86 1261.72 1593.97C1261.93 1592.12 1262.04 1590.37 1261.82 1588.51C1261.61 1587.2 1261.5 1586 1261.61 1584.8Z" fill="#F4F4F4" stroke="white" stroke-width="6" stroke-miterlimit="10"/>
<path d="M696.268 604.819C696.268 603.508 696.378 602.197 696.596 600.887C699.438 582.755 706.432 565.497 716.814 550.315C728.508 533.057 749.054 523.991 769.709 527.049C788.834 529.78 804.352 542.341 810.035 559.708C810.254 560.254 810.254 560.8 810.145 561.347V561.674C810.582 570.085 810.582 579.697 803.915 587.124C798.342 593.241 792.112 600.231 784.462 605.365C762.933 619.673 737.906 624.261 707.853 619.455C704.356 619.018 701.077 617.052 699.001 614.212C697.143 611.372 696.159 608.095 696.268 604.819ZM803.041 561.347C798.014 546.601 785.227 536.334 768.616 534.04C750.693 531.418 732.77 539.283 722.606 554.247C712.771 568.555 706.323 584.83 703.591 601.979C703.044 605.256 703.481 608.205 704.683 609.952C705.667 611.263 707.197 612.137 708.836 612.246C737.032 616.724 760.419 612.465 780.309 599.248C787.195 594.661 793.205 587.998 798.451 582.209C803.369 576.747 803.369 569.539 802.822 562.002C803.041 561.783 803.041 561.565 803.041 561.347Z" fill="#F4F4F4" stroke="white" stroke-width="6" stroke-miterlimit="10"/>
<path d="M731.895 1776.27C731.895 1772.01 731.895 1762.18 741.184 1760.54C746.867 1759.67 752.55 1761.09 757.249 1764.26C760.637 1766.88 762.932 1770.59 765.118 1774.2C765.992 1775.62 766.757 1777.04 767.741 1778.35C768.287 1779.11 768.506 1779.98 768.287 1780.86C768.287 1781.08 768.287 1781.19 768.287 1781.4C768.178 1793.31 764.134 1798.33 760.747 1800.41C758.124 1802.05 753.752 1803.25 747.414 1800.19C737.359 1795.28 731.895 1786.98 731.895 1776.27ZM761.184 1781.51C760.419 1780.31 759.763 1779.22 758.998 1778.02C757.031 1774.85 755.282 1771.79 752.878 1770.05C749.818 1767.97 746.102 1767.21 742.496 1767.64C740.201 1767.97 739.108 1769.5 739.108 1776.27C739.108 1784.24 742.933 1790.03 750.802 1793.86C753.534 1795.17 755.61 1795.39 757.14 1794.4C759.654 1792.76 761.184 1787.96 761.184 1781.51Z" fill="#F4F4F4" stroke="white" stroke-width="6" stroke-miterlimit="10"/>
<path d="M617.036 667.296C617.036 650.147 624.467 637.04 639.877 627.101C646.762 622.622 655.505 621.202 663.92 619.892C665.996 619.564 668.072 619.236 670.149 618.909C679.657 617.161 685.995 618.035 690.039 621.53C694.957 625.681 695.503 632.344 695.503 639.116C695.394 653.752 696.05 668.825 696.815 683.352C697.033 687.721 697.252 691.981 697.47 696.35C697.689 697.989 698.017 699.627 698.563 701.156C698.891 702.139 699.11 703.122 699.438 703.996C699.547 704.433 699.547 704.87 699.547 705.416C699.547 705.744 699.547 706.071 699.547 706.399C699.328 708.365 699.11 710.222 698.782 712.188C698.235 716.011 697.798 720.052 697.47 723.984C696.487 737.201 690.695 742.881 685.995 745.284C679.001 748.888 669.602 747.796 660.641 742.444C639.44 729.664 625.669 710.659 619.549 685.865C617.91 679.748 617.145 673.522 617.036 667.296ZM688.29 638.242C688.29 632.016 687.416 628.63 685.449 626.882C683.154 624.916 678.455 624.588 671.46 625.899C669.384 626.227 667.198 626.664 665.012 626.991C657.362 628.193 649.494 629.394 643.811 633.108C625.997 644.795 620.642 660.415 626.434 684.117C632.008 707.054 644.795 724.531 664.247 736.327C671.023 740.369 677.908 741.352 682.608 738.949C686.979 736.655 689.602 731.303 690.258 723.438C690.585 719.288 691.132 715.246 691.569 711.205C691.788 709.348 692.115 707.382 692.334 705.525V705.416C692.115 704.651 691.897 703.996 691.678 703.231C690.913 701.156 690.476 698.862 690.258 696.678C690.039 692.309 689.82 688.049 689.602 683.789C688.837 669.153 688.181 654.08 688.29 639.116V638.242Z" fill="#F4F4F4" stroke="white" stroke-width="6" stroke-miterlimit="10"/>
<path d="M617.8 1610.36C617.8 1608.17 618.128 1605.99 618.675 1603.91C619.986 1599.87 624.358 1593.43 638.018 1596.38C649.384 1598.78 657.362 1606.97 661.624 1620.51C661.843 1621.06 661.843 1621.61 661.733 1622.15C661.843 1622.48 661.843 1622.92 661.733 1623.25C660.75 1628.93 659.111 1635.04 654.302 1637.55C649.603 1640.07 643.92 1637.88 640.095 1636.13C634.521 1633.51 626.653 1629.03 621.298 1622.48C618.893 1619.42 617.8 1614.73 617.8 1610.36ZM654.63 1622.26C651.133 1611.34 645.341 1605.33 636.488 1603.48C630.15 1602.16 626.434 1603.04 625.45 1606.21C624.248 1609.81 625.013 1615.71 626.871 1618C631.352 1623.46 638.128 1627.4 643.046 1629.69C646.761 1631.44 649.493 1631.98 650.914 1631.22C652.553 1630.45 653.756 1627.4 654.63 1622.26Z" fill="#F4F4F4" stroke="white" stroke-width="6" stroke-miterlimit="10"/>
<path d="M174.864 719.834C174.973 712.407 175.848 705.088 177.378 697.879C184.809 660.524 210.273 635.293 231.693 617.489C248.195 603.836 264.151 596.081 280.544 593.896C302.729 590.947 325.351 588.653 347.208 586.359C357.372 585.376 367.536 584.284 377.699 583.192C384.912 582.427 392.125 581.663 399.447 581.007C416.933 579.26 435.074 577.512 452.67 574.563C478.68 570.194 492.45 557.305 494.745 535.241C495.182 531.965 495.838 528.688 496.712 525.52C497.149 523.773 497.586 522.025 497.914 520.277L498.133 518.967C501.739 500.18 505.564 480.628 518.46 464.463C527.203 453.54 542.503 450.045 553.322 456.598C563.486 462.715 575.07 469.706 583.266 479.318C601.845 501.272 602.173 522.025 584.359 542.887C573.759 555.339 561.409 565.606 547.421 576.857C535.508 586.469 531.574 597.937 535.399 611.918C539.771 627.756 545.126 644.359 551.901 662.818L552.448 664.129C565.781 700.173 579.551 737.419 597.364 772.153C603.375 783.841 608.293 796.292 613.102 808.198C615.287 813.659 617.473 819.121 619.659 824.473C619.877 825.128 619.987 825.784 619.877 826.439V826.657C621.517 848.83 617.582 867.836 607.856 885.093C604.249 891.429 600.424 897.654 596.599 903.662C594.742 906.611 592.993 909.451 591.135 912.4C586.654 919.718 582.283 926.927 577.911 934.245C568.294 950.083 558.458 966.467 548.186 982.305C535.727 1001.42 517.913 1013.22 499.225 1014.64C481.412 1016.06 463.817 1008.08 449.61 992.245C440.32 981.759 430.484 971.273 420.539 961.006C396.715 936.539 377.699 909.779 363.711 881.598C346.88 847.52 321.198 824.473 285.134 811.147C255.845 800.334 228.086 785.479 202.841 767.02C181.858 751.728 174.864 737.638 174.864 719.834ZM590.261 512.085C590.261 502.91 586.108 493.626 577.911 483.905C570.48 475.167 559.442 468.504 549.716 462.606C541.956 457.909 530.7 460.64 524.252 468.832C512.449 483.687 509.061 501.491 505.345 520.277L505.127 521.588C504.799 523.445 504.362 525.302 503.815 527.049C503.05 529.889 502.504 532.838 502.067 535.788C499.444 561.237 483.27 576.529 454.09 581.444C436.277 584.393 418.026 586.141 400.321 587.889C393.109 588.653 385.896 589.308 378.683 590.073C368.519 591.165 358.356 592.258 348.083 593.241C326.225 595.425 303.712 597.828 281.637 600.668C266.555 602.634 251.802 609.843 236.392 622.623C215.846 639.662 191.476 663.801 184.481 698.862C179.017 726.388 180.984 741.789 206.994 760.903C231.802 778.925 258.905 793.453 287.647 804.048C325.57 818.138 352.563 842.277 370.158 878.103C383.71 905.628 402.398 931.733 425.676 955.654C435.621 965.921 445.566 976.516 455.074 987.111C467.97 1001.42 483.051 1008.41 498.788 1007.1C515.291 1005.79 531.137 995.194 542.284 978.045C552.448 962.317 562.393 945.933 571.901 930.204C576.272 922.886 580.753 915.568 585.234 908.249C587.091 905.3 588.84 902.351 590.698 899.402C594.414 893.504 598.348 887.278 601.845 881.161C610.807 865.323 614.413 847.52 612.992 826.876V826.439C610.807 821.196 608.73 815.953 606.654 810.71C601.954 798.914 597.146 786.681 591.244 775.212C573.212 740.041 559.333 702.576 545.891 666.313L545.344 665.002C538.459 646.434 532.995 629.613 528.623 613.557C524.033 596.736 528.951 582.536 543.049 571.068C556.71 560.036 568.841 549.987 579.004 538.081C586.436 529.562 590.261 520.824 590.261 512.085Z" fill="#F4F4F4" stroke="white" stroke-width="6" stroke-miterlimit="10"/>
<path d="M186.23 1664.97C186.23 1656.34 186.777 1647.6 187.87 1639.08C190.711 1615.93 201.53 1594.74 221.967 1572.24C238.578 1554 248.305 1533.9 251.693 1510.52C255.081 1487.59 262.293 1468.58 273.768 1452.42C282.402 1440.29 290.489 1427.51 298.358 1415.06L302.948 1407.74C319.122 1382.29 337.264 1352.36 348.411 1319.71C365.241 1270.23 396.06 1230.58 439.883 1201.96C461.085 1188.2 483.489 1190.27 499.882 1207.75C505.237 1213.43 510.701 1219.11 516.165 1224.79C525.345 1234.18 534.744 1244.01 543.596 1253.95L546.11 1256.79C557.475 1269.57 569.169 1282.79 578.24 1297.42C593.758 1322.55 597.256 1349.52 588.185 1375.41C580.316 1397.91 567.53 1418.88 548.951 1439.31C535.727 1453.94 519.662 1465.09 504.034 1475.9C496.603 1481.03 488.953 1486.38 481.631 1492.06C461.959 1507.36 437.916 1524.29 408.409 1533.57C390.268 1539.25 375.295 1548.64 363.82 1561.42C354.968 1571.25 345.788 1581.08 336.936 1590.59C327.647 1600.53 317.92 1610.79 308.74 1621.17C298.795 1632.42 293.768 1645.42 293.768 1659.73V1660.38C294.096 1688.13 303.494 1713.68 313.658 1737.17C317.92 1747.11 326.007 1753.66 337.045 1756.06C360.323 1761.31 379.885 1757.48 395.404 1744.92C408.409 1734.44 419.884 1721.88 430.594 1709.97C450.812 1687.47 477.259 1680.26 509.389 1688.45C545.672 1697.74 584.36 1713.58 596.709 1760.65C596.709 1761.31 596.818 1761.96 596.818 1762.62V1773.1C596.818 1799.76 586.983 1813.3 561.847 1821.27C549.825 1825.1 537.585 1827.94 525.017 1830.78C492.997 1837.98 472.341 1854.04 461.85 1879.93C459.774 1885.17 457.806 1890.63 456.058 1895.87C454.528 1900.24 452.998 1904.72 451.359 1908.98C442.943 1930.83 427.425 1945.46 405.24 1952.67C387.863 1958.35 368.957 1963.7 349.067 1964.8C323.712 1966.22 312.347 1959.33 302.62 1936.29C296.937 1922.74 295.626 1908.65 294.314 1894.89C293.986 1891.29 293.659 1887.57 293.221 1883.97C292.129 1874.47 291.582 1864.74 291.036 1855.35C290.489 1845.52 289.834 1835.36 288.631 1825.53C286.446 1807.95 279.014 1794.73 266.337 1786.32C262.403 1783.7 258.468 1781.3 254.534 1778.78C248.742 1775.18 242.731 1771.36 237.048 1767.31C202.733 1742.85 186.23 1709.86 186.23 1664.97ZM586.218 1346.57C586.218 1331.28 581.628 1316.1 572.338 1301.14C563.595 1286.94 552.12 1274.05 540.973 1261.49L538.46 1258.65C529.717 1248.82 520.318 1239.1 511.247 1229.7C505.783 1224.02 500.209 1218.34 494.854 1212.66C480.866 1197.7 462.287 1196.06 444.036 1207.97C400.978 1236.04 372.017 1273.39 355.405 1322C344.039 1355.42 325.57 1385.79 309.177 1411.56L304.587 1418.88C296.719 1431.33 288.522 1444.33 279.779 1456.57C268.96 1471.75 262.075 1489.77 258.906 1511.51C255.299 1536.3 244.917 1557.71 227.322 1577.04C207.978 1598.34 197.705 1618.22 195.082 1639.85C188.307 1695.33 203.06 1734.11 241.529 1761.74C246.993 1765.68 252.895 1769.39 258.687 1772.89C262.731 1775.4 266.665 1777.91 270.708 1780.53C285.134 1790.14 293.659 1805.11 296.063 1824.88C297.265 1834.93 297.921 1845.19 298.467 1855.13C299.014 1864.42 299.56 1874.03 300.653 1883.31C301.09 1887.03 301.418 1890.63 301.746 1894.35C303.057 1908.11 304.15 1921 309.505 1933.56C318.139 1953.76 326.554 1959.01 348.957 1957.7C368.082 1956.6 386.442 1951.36 403.382 1945.9C423.491 1939.35 437.479 1926.13 445.02 1906.36C446.659 1902.1 448.08 1897.73 449.61 1893.47C451.468 1888.12 453.435 1882.55 455.621 1877.09C467.096 1848.91 489.499 1831.43 523.925 1823.68C536.383 1820.84 548.405 1818 560.207 1814.28C582.611 1807.18 590.152 1796.7 590.152 1772.89V1762.4C590.152 1762.29 590.152 1762.07 590.152 1761.96C578.677 1718.82 544.033 1704.4 508.078 1695.23C478.789 1687.69 454.637 1694.24 436.386 1714.56C425.458 1726.68 413.764 1739.46 400.322 1750.28C383.055 1764.26 361.307 1768.52 335.843 1762.73C322.729 1759.78 312.565 1751.59 307.429 1739.57C297.046 1715.32 287.32 1689 286.992 1659.95C286.774 1643.67 292.784 1627.94 303.713 1615.82C313.002 1605.33 322.619 1595.06 332.018 1585.13C340.87 1575.73 350.05 1565.9 358.793 1556.07C371.033 1542.31 387.098 1532.26 406.551 1526.14C434.966 1517.19 458.353 1500.8 477.478 1485.84C484.909 1480.16 492.669 1474.7 500.1 1469.45C515.291 1458.86 531.028 1447.94 543.815 1433.96C561.737 1414.19 574.087 1394.09 581.628 1372.57C584.578 1364.49 586.108 1355.64 586.218 1346.57Z" fill="#F4F4F4" stroke="white" stroke-width="6" stroke-miterlimit="10"/>
<path d="M235.846 702.357C235.955 693.619 238.797 684.991 243.933 677.891C250.49 668.716 258.468 660.742 267.539 654.079C302.183 628.52 343.274 624.916 383.164 621.311L385.24 621.202C400.868 619.782 416.933 621.312 432.452 622.841L434.965 623.059C461.303 625.571 483.816 635.292 501.849 652.004C520.318 669.043 533.979 690.779 546.328 722.455C555.508 746.157 563.814 770.515 571.792 794.217C575.289 804.484 578.677 814.642 582.283 824.8C582.502 825.346 582.502 825.892 582.502 826.548C582.502 826.766 582.502 826.985 582.502 827.203C582.392 830.262 582.392 833.211 582.502 836.16C582.502 846.536 582.611 857.459 578.24 868.163C565.672 898.31 543.705 919.827 525.891 935.228C508.078 950.629 488.625 952.595 466.549 941.126C431.905 923.213 405.021 896.78 384.584 860.299C372.672 839.109 360.432 817.264 339.777 803.064C325.023 792.797 310.27 783.403 296.172 774.993C277.921 764.289 257.485 750.199 243.824 727.698C238.469 719.069 235.846 710.659 235.846 702.357ZM575.289 826.657C571.792 816.608 568.404 806.559 565.016 796.511C557.038 772.918 548.842 748.669 539.662 725.077C527.749 694.384 514.635 673.522 497.04 657.356C479.882 641.628 459.445 632.78 434.31 630.268L431.796 630.05C416.605 628.63 400.977 627.1 385.896 628.411L383.819 628.63C345.023 632.016 304.806 635.62 271.91 659.978C263.386 666.094 256.064 673.522 249.944 682.041C241.092 694.93 240.982 709.348 249.835 723.875C262.621 745.065 282.183 758.391 299.669 768.767C313.986 777.178 328.848 786.789 343.821 797.057C365.787 812.239 378.464 834.849 390.814 856.694C410.595 891.974 436.495 917.424 469.828 934.682C489.281 944.731 505.674 943.202 521.192 929.767C546.656 907.703 562.284 887.933 571.573 865.432C575.507 856.039 575.398 846.427 575.289 836.269C575.289 833.211 575.289 830.043 575.289 826.985V826.657Z" fill="#F4F4F4" stroke="white" stroke-width="6" stroke-miterlimit="10"/>
<path d="M383.163 1419.65V1417.9C383.491 1406.21 384.475 1394.31 385.349 1382.84C386.005 1374.43 386.661 1365.69 387.098 1357.17C387.972 1338.82 392.016 1320.8 399.01 1303.76C406.004 1287.37 418.463 1273.94 434.2 1265.86C448.298 1258.43 461.631 1256.35 475.182 1259.63C518.46 1270.01 545.891 1293.05 559.114 1330.08C559.333 1330.63 559.333 1331.17 559.333 1331.83V1332.16C560.098 1347.78 559.551 1364.49 550.59 1380.11C532.339 1411.78 504.69 1435.16 468.297 1449.47C454.855 1454.71 440.211 1459.51 424.037 1459.19C410.813 1458.86 399.994 1454.71 392.89 1447.28C386.551 1440.51 383.163 1431.01 383.163 1419.65ZM552.229 1332.05C539.771 1297.75 513.979 1276.34 473.543 1266.73C461.74 1263.89 450.047 1265.75 437.588 1272.3C423.272 1279.73 411.906 1291.85 405.676 1306.71C398.901 1322.87 395.076 1340.13 394.311 1357.72C393.874 1366.34 393.218 1375.08 392.562 1383.49C391.688 1394.85 390.704 1406.65 390.376 1418.12C390.049 1428.39 392.671 1436.58 398.245 1442.37C404.037 1448.48 412.999 1451.87 424.364 1452.09C439.227 1452.42 453.107 1447.83 465.784 1442.91C501.083 1429.04 526.875 1407.3 544.47 1376.61C552.557 1362.63 552.994 1347.12 552.339 1332.59L552.229 1332.05Z" fill="#F4F4F4" stroke="white" stroke-width="6" stroke-miterlimit="10"/>
<path d="M337.482 726.169C337.482 718.742 339.996 711.205 344.914 703.887C368.629 668.935 419.665 656.483 461.194 675.597C498.789 692.855 520.755 724.858 530.044 776.304C531.356 783.731 532.23 791.268 533.104 798.477C533.542 801.972 533.869 805.358 534.307 808.744C534.307 809.072 534.307 809.4 534.307 809.727C534.307 810.055 534.307 810.383 534.307 810.71C534.088 812.239 533.869 813.769 533.651 815.298C533.104 818.575 532.667 821.851 532.339 825.128C530.7 841.294 524.471 853.309 513.214 862.156C500.209 872.314 481.412 876.683 462.724 874.062C443.381 871.331 426.878 861.61 416.059 846.755C410.704 839.328 405.349 831.9 400.103 824.364C394.311 816.172 388.519 807.98 382.617 799.788C377.918 793.234 373.11 786.79 368.192 780.345C360.542 769.969 352.564 759.265 345.023 748.451C339.996 741.242 337.482 733.706 337.482 726.169ZM527.203 809.727C526.766 806.232 526.329 802.737 526.001 799.242C525.127 792.033 524.362 784.605 523.05 777.505C514.198 728.572 493.543 698.207 458.243 682.042C419.884 664.456 372.672 675.816 350.924 707.928C342.619 720.162 342.728 732.504 351.034 744.519C358.465 755.223 366.334 765.818 373.984 776.195C378.792 782.748 383.601 789.193 388.41 795.746C394.311 803.938 400.212 812.13 406.005 820.322C411.25 827.75 416.605 835.177 421.96 842.604C431.578 855.93 446.441 864.559 463.817 867.071C480.538 869.474 497.368 865.542 508.843 856.585C518.569 848.94 523.815 838.782 525.236 824.582C525.564 821.196 526.11 817.701 526.657 814.315L527.203 809.727Z" fill="#F4F4F4" stroke="white" stroke-width="6" stroke-miterlimit="10"/>
<path d="M469.063 1771.25C469.063 1768.3 469.937 1765.46 471.467 1762.95C474.855 1757.27 479.117 1750.82 484.909 1746.34C491.575 1741.32 500.537 1739.68 509.498 1741.87C518.678 1744.16 526.329 1750.17 529.935 1757.92C530.263 1758.58 530.372 1759.23 530.263 1759.89C530.372 1760.43 530.263 1761.09 530.044 1761.64C529.716 1762.4 529.498 1763.27 529.279 1764.15C528.733 1766.66 527.64 1768.95 526.11 1771.03C513.433 1785.56 496.384 1786.1 481.412 1784.68C476.822 1784.35 472.669 1781.62 470.592 1777.47C469.609 1775.62 469.063 1773.43 469.063 1771.25ZM522.941 1760.22C519.662 1754.54 514.198 1750.38 507.75 1748.96C500.974 1747.33 494.198 1748.42 489.28 1752.13C484.363 1755.85 480.647 1761.53 477.696 1766.66C476.166 1768.95 475.948 1771.79 477.04 1774.31C478.024 1776.16 479.991 1777.47 482.177 1777.58C495.291 1778.89 510.263 1778.57 520.755 1766.44C521.52 1765.24 522.066 1763.82 522.394 1762.29C522.503 1761.64 522.722 1760.87 522.941 1760.22Z" fill="#F4F4F4" stroke="white" stroke-width="6" stroke-miterlimit="10"/>
<path d="M446.549 1353.13C446.549 1348.76 447.424 1344.39 449.281 1340.35C452.888 1332.59 459.445 1322.22 474.417 1322.33C485.346 1322.44 500.646 1324.62 506.985 1342.75C507.203 1343.3 507.203 1343.84 507.203 1344.5C507.203 1344.72 507.203 1344.83 507.203 1345.05V1350.29C507.094 1368.42 492.45 1384.04 474.636 1385.13C466.439 1385.68 458.462 1381.31 452.888 1373.12C448.844 1367.22 446.659 1360.34 446.549 1353.13ZM499.99 1344.61C496.056 1334.01 488.624 1329.64 474.308 1329.54C465.784 1329.43 460.429 1333.47 455.839 1343.41C452.232 1351.16 453.434 1361.21 458.789 1369.08C462.942 1375.08 468.516 1378.25 474.199 1377.92C488.187 1377.05 499.99 1364.38 500.1 1350.18L499.99 1344.61Z" fill="#F4F4F4" stroke="white" stroke-width="6" stroke-miterlimit="10"/>
<path d="M348.957 1855.57C348.957 1847.81 351.252 1840.71 355.624 1835.58C364.476 1825.1 376.606 1819.85 391.797 1819.74C406.988 1819.63 412.015 1823.35 417.152 1837.77C417.37 1838.31 417.37 1838.86 417.37 1839.51V1839.95C417.589 1851.53 414.092 1862.89 407.316 1872.39C397.152 1887.14 380.322 1893.8 367.426 1888.34C359.121 1884.84 352.673 1876.21 350.05 1865.29C349.285 1862.01 348.957 1858.74 348.957 1855.57ZM410.157 1839.51C406.223 1828.48 403.491 1826.73 391.797 1826.73C378.683 1826.84 368.629 1831.21 361.088 1840.06C356.498 1845.52 354.968 1854.48 357.044 1863.43C359.121 1872.06 364.039 1878.83 370.268 1881.46C379.994 1885.61 393.109 1880.04 401.414 1868.13C407.316 1859.94 410.376 1850.11 410.157 1839.95C410.157 1839.84 410.157 1839.73 410.157 1839.51Z" fill="#F4F4F4" stroke="white" stroke-width="6" stroke-miterlimit="10"/>
<path d="M185.683 266.981C185.683 251.69 192.35 241.095 206.994 232.575C218.251 226.131 230.928 224.165 246.993 226.458C270.271 229.735 284.259 240.439 289.724 258.899C289.833 259.882 289.833 260.974 289.724 262.066C289.177 263.705 288.849 265.452 288.412 267.309C287.429 271.678 286.445 276.156 283.604 279.761C268.194 299.531 239.015 308.924 214.207 302.043C198.033 297.565 186.011 283.475 185.683 268.401C185.683 267.964 185.683 267.418 185.683 266.981ZM282.729 260.428C278.03 245.027 266.336 236.398 246.009 233.558C231.583 231.483 220.436 233.231 210.601 238.801C197.705 246.228 192.459 254.53 192.896 268.183C193.224 279.87 203.169 291.448 216.174 295.053C238.25 301.169 264.26 292.868 277.921 275.283C279.779 272.989 280.544 269.384 281.309 265.671C281.855 263.923 282.183 262.175 282.729 260.428Z" fill="#F4F4F4" stroke="white" stroke-width="6" stroke-miterlimit="10"/>
<path d="M1219.97 514.925C1219.97 511.321 1220.84 507.716 1222.59 504.549C1226.09 498.214 1233.19 493.735 1242.92 491.551C1255.49 488.711 1268.16 486.636 1280.95 485.216C1310.02 482.157 1336.14 471.672 1360.73 453.431C1364.23 450.809 1367.61 448.188 1371.11 445.567C1381.27 437.702 1391.77 429.619 1403.13 423.284C1418.32 414.765 1429.03 417.277 1437.77 431.586C1440.07 435.408 1441.16 439.668 1442.15 443.819C1442.58 445.567 1443.02 447.314 1443.57 448.953C1443.68 449.499 1443.79 450.045 1443.68 450.591C1443.68 450.919 1443.68 451.355 1443.68 451.683C1443.02 455.288 1442.47 459.001 1442.04 462.715C1440.83 471.016 1439.63 479.536 1437.01 487.619C1429.8 510.01 1421.71 531.965 1412.97 552.718C1403.46 575.437 1391.55 601.433 1371.77 622.732C1363.35 631.797 1351.66 642.502 1336.25 644.358C1304.66 648.181 1278 636.603 1259.09 610.717C1243.57 589.527 1235.27 564.514 1227.18 540.375C1225.54 535.351 1223.79 530.217 1222.04 525.193C1220.73 521.916 1220.08 518.42 1219.97 514.925ZM1436.68 450.591C1436.14 448.953 1435.7 447.205 1435.37 445.457C1434.39 441.634 1433.51 438.03 1431.76 435.19C1425.86 425.578 1420.18 421.864 1406.74 429.401C1395.81 435.518 1385.54 443.491 1375.59 451.137C1372.09 453.868 1368.71 456.489 1365.21 459.111C1339.96 477.898 1311.88 489.039 1281.93 492.206C1269.47 493.626 1257.02 495.701 1244.78 498.432C1237.02 500.07 1231.66 503.347 1229.15 507.826C1226.96 511.758 1226.85 516.782 1228.93 522.68C1230.68 527.705 1232.32 532.838 1234.07 537.863C1241.93 561.456 1250.02 585.922 1264.99 606.238C1282.37 629.941 1306.74 640.536 1335.48 637.04C1348.6 635.402 1359.09 625.79 1366.74 617.598C1385.75 597.173 1397.34 571.832 1406.63 549.659C1415.26 529.125 1423.24 507.389 1430.45 485.216C1432.86 477.679 1433.95 469.815 1435.15 461.514C1435.48 458.018 1436.03 454.195 1436.68 450.591Z" fill="#F4F4F4" stroke="white" stroke-width="6" stroke-miterlimit="10"/>
<path d="M430.922 765.272C430.922 764.508 430.922 763.852 430.922 763.088C431.359 755.77 435.293 749.544 441.085 746.922C446.44 744.519 452.342 745.393 457.478 749.325C461.74 752.711 464.691 757.408 467.423 761.995C468.516 763.852 469.718 765.818 470.921 767.566C471.467 768.331 471.685 769.204 471.576 770.187C471.576 770.406 471.576 770.515 471.576 770.734V772.809C471.576 774.229 471.576 775.539 471.576 776.959C471.795 786.025 467.533 792.797 460.538 794.763C452.123 797.057 445.02 794.982 439.992 788.756C433.763 780.782 430.922 773.464 430.922 765.272ZM464.473 770.734C463.38 769.095 462.396 767.457 461.303 765.709C458.79 761.449 456.385 757.517 453.107 755.005C450.156 752.711 446.987 752.165 444.145 753.476C440.757 755.005 438.462 758.937 438.135 763.525C437.697 770.952 439.992 777.069 445.675 784.168C448.845 788.101 453.107 789.193 458.68 787.664C464.254 786.134 464.582 779.69 464.473 776.959C464.473 775.539 464.473 774.01 464.473 772.59V770.734V770.734Z" fill="#F4F4F4" stroke="white" stroke-width="6" stroke-miterlimit="10"/>
<path d="M20.4424 1430.57C20.4424 1428.06 20.7703 1425.65 21.426 1423.25C23.2839 1416.26 27.5461 1410.36 32.7918 1407.52C44.2668 1401.3 58.6927 1400.75 72.4627 1405.99C86.4513 1411.35 97.1613 1421.72 101.642 1434.5C101.861 1435.05 101.861 1435.59 101.861 1436.25C101.861 1436.47 101.861 1436.58 101.861 1436.8V1440.07C101.861 1442.48 101.861 1444.77 101.861 1447.17C102.407 1460.39 94.9756 1471.64 81.8613 1478.19C70.3862 1483.87 56.5069 1481.91 47.9826 1473.61C38.4747 1463.99 30.2783 1453.29 23.3932 1441.71C21.3168 1438.33 20.3332 1434.5 20.4424 1430.57ZM94.6477 1436.47C90.8227 1426.09 81.5334 1417.24 69.8398 1412.77C58.1462 1408.29 45.7968 1408.62 36.1797 1413.86C32.7918 1415.72 29.7318 1420.08 28.3111 1425.11C26.9997 1429.91 27.4368 1434.61 29.404 1437.89C35.9611 1449.03 43.8297 1459.19 52.9005 1468.36C60.3319 1475.68 71.3698 1475.13 78.5827 1471.64C84.812 1468.58 95.0848 1461.15 94.6477 1447.39C94.5384 1444.88 94.5384 1442.48 94.6477 1439.96V1436.8V1436.47Z" fill="#F4F4F4" stroke="white" stroke-width="6" stroke-miterlimit="10"/>
<path d="M772.987 389.643C772.987 381.451 775.501 372.713 780.637 363.756C798.014 333.282 816.592 300.951 837.248 269.712C857.466 239.02 893.093 228.315 930.032 241.86C950.796 249.505 967.407 261.957 979.538 278.887C1001.5 309.798 1022.27 340.382 1041.18 369.873C1049.81 383.526 1056.91 398.162 1062.49 413.345C1081.72 465.992 1099.97 517.984 1116.8 568.009C1120.74 579.806 1123.47 592.148 1125.98 604.054C1127.18 609.515 1128.39 615.086 1129.7 620.438C1129.81 620.875 1129.81 621.312 1129.81 621.749C1129.81 622.077 1129.81 622.404 1129.81 622.732C1129.37 626.227 1128.93 629.613 1128.6 633.108C1127.73 640.754 1126.86 648.509 1125.54 656.264C1118 702.576 1090.79 733.924 1044.67 749.325C1030.9 753.913 1013.64 754.677 997.243 751.51C971.123 746.376 947.845 730.648 928.283 704.652C918.556 691.763 913.529 676.034 913.42 657.794C913.201 640.099 916.808 623.169 920.305 606.676C921.398 601.542 922.491 596.408 923.474 591.275C928.939 562.548 931.015 529.562 905.224 502.692C891.344 488.274 878.23 476.805 865.006 467.849C848.832 456.817 831.565 446.659 814.844 436.829C808.724 433.224 802.495 429.62 796.375 425.906C780.965 416.731 772.987 404.061 772.987 389.643ZM1122.7 621.858C1121.39 616.397 1120.19 610.935 1119.1 605.583C1116.58 593.896 1113.96 581.772 1110.14 570.412C1093.31 520.496 1075.05 468.614 1055.82 415.966C1050.46 401.221 1043.58 387.131 1035.27 373.914C1016.48 344.532 995.713 313.949 973.746 283.147C962.49 267.309 946.971 255.731 927.627 248.632C893.967 236.289 861.618 245.901 843.258 273.644C822.713 304.774 804.134 336.996 786.867 367.361C774.627 388.769 779.326 407.447 799.981 419.899C806.101 423.612 812.221 427.217 818.341 430.821C835.171 440.652 852.438 450.919 868.831 462.06C882.383 471.344 895.934 483.031 910.141 497.886C938.119 527.05 936.042 562.22 930.25 592.804C929.267 598.047 928.174 603.18 927.081 608.314C923.693 624.37 920.196 641.191 920.414 657.794C920.633 674.724 925.004 688.595 933.857 700.392C952.326 724.859 974.074 739.713 998.445 744.519C1013.42 747.468 1029.81 746.704 1042.27 742.553C1085.76 728.026 1111.34 698.644 1118.33 655.172C1119.53 647.635 1120.41 639.88 1121.28 632.344C1121.83 628.958 1122.27 625.463 1122.7 621.858Z" fill="#F4F4F4" stroke="white" stroke-width="6" stroke-miterlimit="10"/>
<path d="M839.979 361.681C839.979 357.53 840.417 353.379 841.072 349.338C844.023 331.425 850.362 314.276 859.76 298.766C868.285 284.676 880.853 275.938 895.169 274.19C910.141 272.443 925.551 278.232 937.354 290.137C948.501 301.388 957.899 314.386 965.112 328.476C980.959 359.824 998.335 390.407 1017.24 420.008C1028.94 438.139 1036.69 453.322 1041.5 467.739C1047.62 485.871 1054.62 504.112 1061.5 521.697C1072.76 550.861 1084.45 580.898 1092.1 611.918C1092.21 612.355 1092.21 612.792 1092.21 613.338C1092.21 613.447 1092.21 613.557 1092.21 613.666C1093.09 631.47 1091.01 645.56 1085.65 658.121C1072.21 689.578 1049.04 707.164 1018.77 708.911C1002.38 709.676 986.423 703.887 974.292 692.855C961.615 681.495 953.965 665.548 953.2 648.618C952.216 629.395 956.806 611.263 961.178 593.677C962.38 588.762 963.691 583.738 964.784 578.713C968.281 562.876 972.325 544.853 969.156 526.831C964.784 501.927 952.544 479.645 931.561 458.564C915.606 442.508 897.683 429.401 880.743 417.277C874.951 413.126 869.268 408.648 863.804 404.279C861.727 402.641 859.651 401.002 857.575 399.473C845.99 390.407 839.979 377.737 839.979 361.681ZM1085.11 613.448C1077.57 582.973 1065.98 553.154 1054.84 524.319C1047.95 506.624 1040.85 488.383 1034.73 470.033C1030.14 456.271 1022.6 441.525 1011.23 423.94C992.215 394.121 974.62 363.319 958.664 331.753C951.779 318.318 942.818 305.975 932.217 295.162C921.944 284.785 908.721 279.761 895.934 281.29C883.694 282.71 873.312 290.028 865.771 302.48C856.81 317.226 850.799 333.5 848.067 350.54C844.897 369.982 849.378 384.291 862.055 394.121C864.132 395.759 866.208 397.398 868.285 399.036C873.749 403.296 879.323 407.774 885.005 411.706C902.273 423.94 920.414 437.265 936.807 453.759C958.774 475.822 971.779 499.415 976.369 525.739C979.757 545.072 975.604 563.859 971.888 580.352C970.795 585.376 969.484 590.401 968.282 595.534C963.801 613.338 959.648 630.268 960.522 648.4C961.178 663.473 967.954 677.673 979.21 687.721C989.92 697.443 1004.13 702.576 1018.55 701.921C1046.31 700.392 1066.75 684.772 1079.21 655.5C1084.12 643.922 1085.98 631.142 1085.11 614.212C1085.11 613.994 1085.11 613.775 1085.11 613.448Z" fill="#F4F4F4" stroke="white" stroke-width="6" stroke-miterlimit="10"/>
<path d="M1012.65 1653.72C1012.65 1630.13 1017.79 1608.61 1028.06 1589.17C1037.35 1571.47 1049.81 1555.31 1061.83 1539.69C1067.19 1532.81 1072.65 1525.6 1077.79 1518.5C1091.01 1499.93 1107.73 1485.95 1127.29 1476.77C1149.48 1466.4 1172.1 1457 1193.19 1448.37C1224.78 1435.59 1252.32 1439.75 1275.16 1460.61C1296.9 1480.6 1317.45 1501.13 1335.92 1521.45C1348.16 1534.99 1359.2 1549.95 1369.91 1564.37L1376.03 1572.67C1380.84 1579.23 1385.54 1586 1389.91 1592.55C1396.46 1602.16 1403.24 1612.21 1410.67 1621.28C1423.68 1637.12 1435.7 1652.85 1440.4 1673.16C1440.51 1673.6 1440.51 1674.04 1440.4 1674.47V1674.69C1442.47 1700.69 1425.32 1724.28 1400.07 1730.51C1381.49 1735.09 1364.99 1738.48 1349.69 1740.99C1319.2 1746.02 1310.78 1760.65 1306.74 1784.14C1305.65 1790.25 1304.66 1796.37 1303.68 1802.38C1302.37 1810.79 1300.95 1819.42 1299.31 1827.94C1296.14 1844.43 1288.49 1859.07 1281.06 1873.26C1278.33 1878.51 1275.48 1883.97 1272.97 1889.32C1262.48 1911.71 1256.91 1934.76 1256.69 1957.81C1256.58 1965.34 1256.69 1972.88 1256.8 1980.31C1257.02 1993.52 1257.12 2007.18 1256.25 2020.61C1255.27 2036.56 1252.32 2048.9 1247.4 2058.4C1233.85 2084.51 1199.09 2098.82 1166.64 2091.72C1133.19 2084.4 1106.75 2065.61 1088.06 2035.9C1070.35 2007.83 1061.61 1976.05 1053.09 1945.24C1045.66 1918.16 1038.77 1886.04 1045 1852.84C1048.5 1833.94 1045.66 1815.81 1035.6 1792.11C1026.64 1770.81 1021.29 1748.31 1019.54 1725.26L1018.99 1717.94C1018.12 1706.69 1017.24 1695.01 1015.27 1683.76C1013.53 1674.04 1012.65 1663.88 1012.65 1653.72ZM1433.4 1674.58C1428.92 1655.9 1417.99 1641.49 1405.21 1625.98C1397.56 1616.69 1390.67 1606.53 1384.01 1596.7C1379.63 1590.15 1375.04 1583.38 1370.24 1577.04L1364.12 1568.74C1353.51 1554.43 1342.7 1539.58 1330.56 1526.36C1312.2 1506.15 1291.88 1485.84 1270.24 1465.96C1249.58 1447.06 1224.56 1443.35 1195.92 1455.04C1174.83 1463.56 1152.32 1472.95 1130.35 1483.22C1111.88 1491.85 1096.15 1505.06 1083.58 1522.65C1078.33 1529.86 1072.87 1537.07 1067.51 1544.06C1055.71 1559.46 1043.47 1575.51 1034.4 1592.55C1020.63 1618.55 1016.59 1649.02 1022.38 1682.88C1024.35 1694.46 1025.22 1706.26 1026.2 1717.73L1026.75 1724.94C1028.39 1747.22 1033.63 1768.95 1042.27 1789.6C1049.81 1807.29 1056.8 1828.92 1052.1 1854.37C1046.2 1886.15 1052.87 1917.28 1060.08 1943.61C1068.5 1973.97 1077.13 2005.21 1094.18 2032.41C1111.77 2060.48 1136.69 2078.17 1168.17 2085.05C1197.56 2091.5 1228.93 2078.72 1241.06 2055.45C1245.54 2046.83 1248.16 2035.47 1249.15 2020.5C1250.02 2007.29 1249.8 1993.85 1249.69 1980.74C1249.58 1973.21 1249.47 1965.56 1249.58 1958.02C1249.91 1933.99 1255.59 1909.96 1266.52 1886.59C1269.15 1881.02 1271.99 1875.56 1274.83 1870.21C1282.04 1856.55 1289.36 1842.35 1292.42 1826.84C1294.06 1818.43 1295.37 1809.8 1296.8 1801.5C1297.78 1795.39 1298.76 1789.27 1299.86 1783.15C1304.34 1757.81 1314.28 1739.79 1348.71 1734.11C1363.79 1731.6 1380.18 1728.21 1398.54 1723.73C1420.4 1718.27 1435.15 1697.85 1433.29 1675.46C1433.4 1675.02 1433.4 1674.8 1433.4 1674.58Z" fill="#F4F4F4" stroke="white" stroke-width="6" stroke-miterlimit="10"/>
<path d="M50.4959 850.032C50.4959 844.898 51.261 839.655 52.791 834.74C56.6161 822.398 65.1403 812.021 76.6154 806.014C86.8883 800.771 96.7241 799.788 104.156 803.392C108.527 805.467 114.21 810.273 116.396 821.196C116.505 821.633 116.505 821.961 116.396 822.398C116.396 822.507 116.396 822.725 116.396 822.834C116.833 845.444 108.964 863.904 92.3526 878.868C86.8883 883.674 79.5662 885.64 72.4626 884.329C65.4682 883.237 59.4575 878.868 56.0696 872.642C52.3539 865.651 50.4959 857.896 50.4959 850.032ZM109.292 822.288C107.981 815.953 105.248 811.693 100.986 809.727C95.7405 807.215 87.9811 808.089 79.8939 812.24C70.1675 817.373 62.8453 826.22 59.676 836.815C56.1788 847.52 57.1624 859.207 62.4081 869.256C64.7032 873.515 68.8561 876.465 73.6647 877.229C78.5826 878.212 83.719 876.792 87.544 873.515C102.516 859.971 109.511 843.478 109.292 822.834C109.292 822.725 109.292 822.507 109.292 822.288Z" fill="#F4F4F4" stroke="white" stroke-width="6" stroke-miterlimit="10"/>
</svg>
